<svg version="1.1" viewBox="0 0 356.7 61.88" xmlns="http://www.w3.org/2000/svg"><g transform="matrix(1.333 0 0 -1.333 0 61.88)"><g transform="scale(.1)"><g fill="#231f20"><path d="m569.7 155.2c0 8.477-2.425 17.08-20.05 17.08h-18.7v-34.15h18.7c17.62 0 20.05 8.605 20.05 17.07zm12.37 0.129c0-17.88-11.43-28.23-31.34-28.23h-19.77v-33.23h-12.51v89.71h32.28c19.91 0 31.34-10.35 31.34-28.25"/><path d="m619 130.7h28.51l-14.25 37.26zm32.95-11.57h-37.39l-9.684-25.28h-13.45l35.77 89.71h12.25l35.64-89.71h-13.45l-9.687 25.28"/><path d="m709.5 93.82h-12.37v89.71h12.37v-89.71"/><path d="m816 183.5v-89.71h-13.85l-50.58 71.84v-71.84h-12.51v89.71h14.26l50.17-71.41v71.41h12.51"/><path d="m910.4 171.8h-30.4v-78.01h-12.38v78.01h-30.26v11.71h73.04v-11.71"/><path d="m944.1 93.82h-12.38v89.71h12.38v-89.71"/><path d="m1051 183.5v-89.71h-13.85l-50.58 71.84v-71.84h-12.51v89.71h14.26l50.17-71.41v71.41h12.51"/><path d="m1149 143.6v-43.72c-9.95-4.707-20.57-7.129-31.6-7.129-19.11 0-41.7 7.938-41.7 46 0 37.94 22.59 45.88 41.7 45.88 9.82 0 19.37-1.75 28.24-5.254v-11.43c-8.47 3.497-17.48 5.391-27.03 5.391-14.13 0-30.41-3.906-30.41-34.59 0-30.8 16.41-34.71 30.67-34.71 6.19 0 12.25 0.945 18.03 2.567v25.29h-18.29v11.7h30.39"/><path d="m1233 164.6c0-2.812 3.5-8.476 7.53-13.3 11.17 6.3 12.51 9.269 12.51 13.84 0 5.528-4.31 9.688-9.96 9.688s-10.08-4.563-10.08-10.23zm26.5-53.25-21.52 25.96c-13.86-7.277-13.86-14.27-13.86-18.57s3.09-15.47 17.62-15.47c7.67 0 13.45 3.496 17.76 8.078zm29.32-17.5h-14.93l-7.67 9.278c-6.05-6.036-14.12-10.35-24.74-10.35-20.72 0-28.53 16.13-28.53 26.36 0 8.086 2.15 18.05 17.36 26.77-3.91 4.852-8.34 11.86-8.34 17.89 0 11.57 9.41 20.98 20.99 20.98 11.82 0 20.98-9.004 20.98-20.45 0-9.93-5.11-15.59-15.74-21.78l17.48-20.98c2.42 5.508 3.5 11.56 3.5 11.56h11.58c-0.95-5.774-3.24-13.45-7.54-20.58l15.6-18.7"/><path d="m1396 117.4c0-15.33-12.11-24.62-32.42-24.62-9.82 0-18.84 2.684-26.64 6.59v12.92c7.13-4.317 15.88-7.539 25.57-7.539 9.55 0 20.97 2.156 20.97 12.64 0 23.27-47.75 12.38-47.75 41.7 0 12.38 8.2 25.56 31.35 25.56 9.55 0 17.34-2.695 23.14-5.644v-12.38c-4.72 2.824-12.11 5.918-21.66 5.918-9.28 0-20.31-2.286-20.31-13.46 0-15.59 47.75-9.95 47.75-41.7"/><path d="m1439 130.7h28.51l-14.25 37.26zm32.97-11.57h-37.41l-9.68-25.28h-13.46l35.78 89.71h12.25l35.64-89.71h-13.46l-9.66 25.28"/><path d="m1594 183.5v-89.71h-13.87l-50.56 71.84v-71.84h-12.52v89.71h14.27l50.18-71.41v71.41h12.5"/><path d="m1680 138.6c0 23.4-9.82 33.91-31.74 33.91h-14.14v-67.68h14.14c21.92 0 31.74 10.51 31.74 33.77zm12.36 0c0-29.32-14.53-44.79-42.1-44.79h-28.64v89.71h28.64c27.57 0 42.1-15.46 42.1-44.92"/><path d="m1772 120c0 11.98-9.16 14.41-21.39 14.41h-19.35v-29.6l20.29 0.136c13.59 0 20.45 4.18 20.45 15.06zm-40.74 25.59h18.41c9.83 0 17.07 2.277 17.07 13.04 0 10.89-7.13 13.71-18.3 13.71h-17.18zm53.24-26.11c0-9.961-4.16-25.69-32.13-25.69h-33.63v89.71h31.05c25.7 0 29.47-15.06 29.47-24.47 0-13.86-10.62-18.29-10.62-18.29s15.86-4.972 15.86-21.26"/><path d="m1865 105.5v-11.71h-57.05v89.71h12.39v-78.01h44.66"/><path d="m1910 130.7h28.5l-14.26 37.26zm32.95-11.57h-37.4l-9.67-25.28h-13.47l35.78 89.71h12.24l35.65-89.71h-13.44l-9.69 25.28"/><path d="m2045 117.4c0-15.33-12.13-24.62-32.44-24.62-9.81 0-18.83 2.684-26.62 6.59v12.92c7.11-4.317 15.88-7.539 25.54-7.539 9.56 0 21 2.156 21 12.64 0 23.27-47.75 12.38-47.75 41.7 0 12.38 8.2 25.56 31.34 25.56 9.54 0 17.35-2.695 23.13-5.644v-12.38c-4.71 2.824-12.09 5.918-21.66 5.918-9.28 0-20.31-2.286-20.31-13.46 0-15.59 47.77-9.95 47.77-41.7"/><path d="m2133 171.8h-30.41v-78.01h-12.38v78.01h-30.26v11.71h73.05v-11.71"/><path d="m2167 93.82h-12.36v89.71h12.36v-89.71"/><path d="m2273 183.5v-89.71h-13.86l-50.57 71.84v-71.84h-12.52v89.71h14.26l50.17-71.41v71.41h12.52"/><path d="m2371 143.6v-43.72c-9.94-4.707-20.56-7.129-31.6-7.129-19.1 0-41.7 7.938-41.7 46 0 37.94 22.6 45.88 41.7 45.88 9.82 0 19.36-1.75 28.24-5.254v-11.43c-8.47 3.497-17.48 5.391-27.03 5.391-14.12 0-30.41-3.906-30.41-34.59 0-30.8 16.41-34.71 30.67-34.71 6.19 0 12.26 0.945 18.02 2.567v25.29h-18.28v11.7h30.39"/><path d="m2509 105.5v-11.71h-57.03v89.71h12.36v-78.01h44.67"/><path d="m2585 171.8h-30.41v-78.01h-12.36v78.01h-30.28v11.71h73.05v-11.71"/><path d="m2663 138.6c0 23.4-9.81 33.91-31.74 33.91h-14.12v-67.68h14.12c21.93 0 31.74 10.51 31.74 33.77zm12.38 0c0-29.32-14.53-44.79-42.11-44.79h-28.65v89.71h28.65c27.58 0 42.11-15.46 42.11-44.92"/></g><path d="m353.6 150.5v264l-165.5 26.68v-413.1l165.5 122.4" fill="#ccc"/><g><path d="m22.64 150.5 165.5-122.4 165.5 122.4v264l-165.5 26.68-165.5-26.68zm165.5-150.5-188.1 139.1v294.7l188.1 30.3 188.1-30.3v-294.7l-188.1-139.1"/><path d="m654.5 399.3h-114.7v-135.3h112.2c51.04 0 53.02 24.28 53.02 68.64 0 41.37-1.738 66.64-50.54 66.64zm-7.929-154.4h-129.1v173.4h129.8c65.17 0 80.52-19.32 80.52-83.5 0-64.92-12.39-89.94-81.27-89.94"/><path d="m986 344.8c0 58.72-12.63 55-68.4 55-14.36 0-78.28 0.726-87.2-2.227-18.84-6.449-19.57-18.84-19.57-36.43l-0.254-37.67c-0.504-59.71 10.65-59.96 67.16-59.96 18.08 0 36.16 0.5 54.25 0.5 47.07 0 54.02 6.937 54.02 54.52zm22.31-33.95c-0.5-54.52-15.13-65.91-67.66-65.91h-95.64c-53.51 0-56.49 28.48-56.49 74.09 0 58.97-10.17 99.36 65.65 99.36h97.14c51.28 0 57.48-29.98 57.24-73.34l-0.25-34.2"/><path d="m1248 244.9-156.8 152.6v-152.6h-22.3v173.4h33.94l157.1-153.1v153.1h22.07v-173.4h-33.96"/><path d="m1343 244.9v173.4h167.7v-19.08h-145.4v-55.5h139.5v-18.32h-139.5v-61.45h146.2v-19.08h-168.5"/></g><g fill="#ee3124"><path d="m1706 376h-81.03v-41.62h79.54c15.62 0 28 1.476 28 20.3 0 18.59-9.92 21.32-26.51 21.32zm48.54-63.19c28.01-8.679 28.77-23.3 28.77-49.81v-18.08h-53.03v11.64c0 20.07 1.74 31.72-21.81 33.2-9.91 0.504-19.83 0.746-29.48 0.746-18.1 0-36.18-0.504-54.02-0.504v-45.09h-53.26v173.4h159.8c45.6 0 52.54-21.57 52.54-62.44 0-24.78-5.69-34.2-29.5-43.11"/><path d="m1837 244.9v173.4h53.05v-173.4h-53.05"/><path d="m2103 244.9h-101.3c-54.76 0-59.71 31.47-59.71 77.06 0 62.68-5.73 96.38 72.83 96.38h89.2c42.63 0 61.19-11.88 61.19-55.99v-3.723h-51.53c-1.99 21.8-18.31 17.59-35.68 17.59-12.38 0-24.76-0.242-37.16-0.242-33.93 0-45.84 0.242-45.84-36.42 0-46.6-2.21-52.78 47.34-52.78 16.09 0 32.44 0.485 48.54 0.485 7.44 0 16.62 0.488 20.81 7.691 1.25 2.473 1.51 5.442 1.51 8.41v5.703h-65.67v34.69h118.9c0-12.88 0.49-25.77 0.49-38.65 0-48.07-14.61-60.21-63.93-60.21"/><path d="m2383 244.9v65.91h-110.5v-65.91h-53.02v173.4h53.02v-62.2h110.5v62.2h53.03v-173.4h-53.03"/><path d="m2599 376v-131.1h-52.77v131.1h-73.85v42.37h202v-42.37h-75.33"/><path d="m100.5 188s57.93-2.832 86.54-74.82c0 0 14.94 145.3 154.1 248.7 0 0-93.16-9.535-171.6-153.3 0 0-22.01 24.93-52.08 30.07l-16.88-50.61"/></g></g></g></svg>
